<svg width="30" height="30" viewBox="0 0 30 30" fill="none" xmlns="http://www.w3.org/2000/svg">
<path d="M6.66375 14.9963C6.66375 15.6305 6.73313 16.2478 6.86625 16.8426H0.9375C0.68886 16.8426 0.450403 16.9415 0.274588 17.1174C0.0987722 17.2934 0 17.532 0 17.7808C0 18.0297 0.0987722 18.2683 0.274588 18.4443C0.450403 18.6202 0.68886 18.719 0.9375 18.719H29.0625C29.3111 18.719 29.5496 18.6202 29.7254 18.4443C29.9012 18.2683 30 18.0297 30 17.7808C30 17.532 29.9012 17.2934 29.7254 17.1174C29.5496 16.9415 29.3111 16.8426 29.0625 16.8426H23.265C23.5226 15.6895 23.5346 14.4951 23.3 13.3371C23.0654 12.179 22.5895 11.0835 21.9034 10.1219C21.2173 9.16031 20.3365 8.3542 19.3182 7.75616C18.2999 7.15812 17.1671 6.78156 15.9937 6.65105C14.8202 6.52054 13.6324 6.639 12.5078 6.99871C11.3832 7.35842 10.3469 7.9513 9.4666 8.7387C8.58629 9.5261 7.8817 10.4903 7.39876 11.5685C6.91582 12.6467 6.66537 13.8147 6.66375 14.9963ZM21.33 16.8426H8.805C8.51926 15.8687 8.46424 14.8416 8.64433 13.8427C8.82442 12.8438 9.23465 11.9007 9.84248 11.0881C10.4503 10.2755 11.239 9.61591 12.146 9.16157C13.0529 8.70723 14.0532 8.47068 15.0675 8.47068C16.0818 8.47068 17.0821 8.70723 17.989 9.16157C18.896 9.61591 19.6847 10.2755 20.2925 11.0881C20.9003 11.9007 21.3106 12.8438 21.4907 13.8427C21.6708 14.8416 21.6157 15.8687 21.33 16.8426Z" fill="url(#paint0_linear)"/>
<path d="M15.0469 30C15.1163 30.0001 15.1854 29.9925 15.2531 29.9775H14.8406C14.9084 29.9926 14.9775 30.0001 15.0469 30Z" fill="url(#paint1_linear)"/>
<path d="M5.6381 4.31574L5.76935 4.42457L7.3781 6.03453C7.54419 6.20001 7.64233 6.42175 7.65316 6.65604C7.664 6.89034 7.58675 7.1202 7.43664 7.30032C7.28653 7.48045 7.07445 7.59777 6.84219 7.62918C6.60993 7.66058 6.37434 7.60379 6.18185 7.46998L6.0506 7.36115L4.44185 5.75119C4.27575 5.58572 4.17762 5.36398 4.16678 5.12968C4.15594 4.89539 4.23319 4.66553 4.3833 4.4854C4.53341 4.30528 4.74549 4.18795 4.97775 4.15655C5.21001 4.12514 5.4456 4.18194 5.6381 4.31574Z" fill="url(#paint2_linear)"/>
<path d="M25.65 4.42457C25.8052 4.57946 25.9012 4.78383 25.9214 5.00218C25.9416 5.22054 25.8847 5.43908 25.7607 5.61984L25.6519 5.75119L24.0413 7.36115C23.8754 7.52493 23.6545 7.62101 23.4217 7.63068C23.1889 7.64034 22.9608 7.56288 22.782 7.41341C22.6031 7.26393 22.4863 7.05316 22.4543 6.82217C22.4222 6.59119 22.4773 6.35655 22.6088 6.164L22.7157 6.03265L24.3263 4.42457C24.5021 4.24869 24.7405 4.14988 24.9891 4.14988C25.2377 4.14988 25.4761 4.24869 25.6519 4.42457H25.65Z" fill="url(#paint3_linear)"/>
<path d="M15.0525 5.21835e-08C15.2719 -7.31538e-05 15.4844 0.0768791 15.653 0.217456C15.8216 0.358032 15.9355 0.553326 15.975 0.769327L15.99 0.938204V3.21616C15.9905 3.45061 15.9032 3.67673 15.7453 3.84998C15.5875 4.02324 15.3705 4.13107 15.1372 4.15226C14.9039 4.17344 14.6711 4.10644 14.4847 3.96444C14.2983 3.82244 14.1718 3.61574 14.13 3.38504L14.115 3.21616V0.938204C14.115 0.689377 14.2138 0.450741 14.3896 0.274794C14.5654 0.0988464 14.8039 5.21835e-08 15.0525 5.21835e-08Z" fill="url(#paint4_linear)"/>
<path d="M12.1875 26.2247C11.9389 26.2247 11.7004 26.3235 11.5246 26.4995C11.3488 26.6754 11.25 26.9141 11.25 27.1629C11.25 27.4117 11.3488 27.6503 11.5246 27.8263C11.7004 28.0022 11.9389 28.1011 12.1875 28.1011H17.8125C18.0611 28.1011 18.2996 28.0022 18.4754 27.8263C18.6512 27.6503 18.75 27.4117 18.75 27.1629C18.75 26.9141 18.6512 26.6754 18.4754 26.4995C18.2996 26.3235 18.0611 26.2247 17.8125 26.2247H12.1875Z" fill="url(#paint5_linear)"/>
<path d="M5.62501 22.4719C5.62501 22.223 5.72378 21.9844 5.8996 21.8084C6.07542 21.6325 6.31387 21.5337 6.56251 21.5337H23.4375C23.6862 21.5337 23.9246 21.6325 24.1004 21.8084C24.2762 21.9844 24.375 22.223 24.375 22.4719C24.375 22.7207 24.2762 22.9593 24.1004 23.1353C23.9246 23.3112 23.6862 23.4101 23.4375 23.4101H6.56251C6.31387 23.4101 6.07542 23.3112 5.8996 23.1353C5.72378 22.9593 5.62501 22.7207 5.62501 22.4719Z" fill="url(#paint6_linear)"/>
<defs>
<linearGradient id="paint0_linear" x1="-1.97016e-08" y1="-0.0450285" x2="30.0225" y2="29.955" gradientUnits="userSpaceOnUse">
<stop offset="0.163305" stop-color="#0B88FB"/>
<stop offset="0.928985" stop-color="#FA00FF"/>
</linearGradient>
<linearGradient id="paint1_linear" x1="-1.97016e-08" y1="-0.0450285" x2="30.0225" y2="29.955" gradientUnits="userSpaceOnUse">
<stop offset="0.163305" stop-color="#0B88FB"/>
<stop offset="0.928985" stop-color="#FA00FF"/>
</linearGradient>
<linearGradient id="paint2_linear" x1="-1.97016e-08" y1="-0.0450285" x2="30.0225" y2="29.955" gradientUnits="userSpaceOnUse">
<stop offset="0.163305" stop-color="#0B88FB"/>
<stop offset="0.928985" stop-color="#FA00FF"/>
</linearGradient>
<linearGradient id="paint3_linear" x1="-1.97016e-08" y1="-0.0450285" x2="30.0225" y2="29.955" gradientUnits="userSpaceOnUse">
<stop offset="0.163305" stop-color="#0B88FB"/>
<stop offset="0.928985" stop-color="#FA00FF"/>
</linearGradient>
<linearGradient id="paint4_linear" x1="-1.97016e-08" y1="-0.0450285" x2="30.0225" y2="29.955" gradientUnits="userSpaceOnUse">
<stop offset="0.163305" stop-color="#0B88FB"/>
<stop offset="0.928985" stop-color="#FA00FF"/>
</linearGradient>
<linearGradient id="paint5_linear" x1="-1.97016e-08" y1="-0.0450285" x2="30.0225" y2="29.955" gradientUnits="userSpaceOnUse">
<stop offset="0.163305" stop-color="#0B88FB"/>
<stop offset="0.928985" stop-color="#FA00FF"/>
</linearGradient>
<linearGradient id="paint6_linear" x1="-1.97016e-08" y1="-0.0450285" x2="30.0225" y2="29.955" gradientUnits="userSpaceOnUse">
<stop offset="0.163305" stop-color="#0B88FB"/>
<stop offset="0.928985" stop-color="#FA00FF"/>
</linearGradient>
</defs>
</svg>
