<svg width="31" height="22" viewBox="0 0 31 22" fill="none" xmlns="http://www.w3.org/2000/svg">
<path d="M14.3381 7.22625C14.4252 7.31356 14.5287 7.38282 14.6426 7.43009C14.7565 7.47735 14.8786 7.50168 15.0019 7.50168C15.1252 7.50168 15.2473 7.47735 15.3612 7.43009C15.4751 7.38282 15.5785 7.31356 15.6656 7.22625L18.4781 4.41375C18.5653 4.32659 18.6344 4.22311 18.6816 4.10922C18.7288 3.99533 18.7531 3.87327 18.7531 3.75C18.7531 3.62673 18.7288 3.50467 18.6816 3.39078C18.6344 3.27689 18.5653 3.17341 18.4781 3.08625C18.391 2.99908 18.2875 2.92994 18.1736 2.88277C18.0597 2.8356 17.9376 2.81132 17.8144 2.81132C17.6911 2.81132 17.569 2.8356 17.4552 2.88277C17.3413 2.92994 17.2378 2.99908 17.1506 3.08625L15.9394 4.29937V0.9375C15.9394 0.68886 15.8406 0.450403 15.6648 0.274587C15.489 0.098772 15.2505 0 15.0019 0C14.7532 0 14.5148 0.098772 14.339 0.274587C14.1631 0.450403 14.0644 0.68886 14.0644 0.9375V4.29937L12.8531 3.08625C12.766 2.99908 12.6625 2.92994 12.5486 2.88277C12.4347 2.8356 12.3126 2.81132 12.1894 2.81132C12.0661 2.81132 11.944 2.8356 11.8302 2.88277C11.7163 2.92994 11.6128 2.99908 11.5256 3.08625C11.4385 3.17341 11.3693 3.27689 11.3221 3.39078C11.275 3.50467 11.2507 3.62673 11.2507 3.75C11.2507 3.87327 11.275 3.99533 11.3221 4.10922C11.3693 4.22311 11.4385 4.32659 11.5256 4.41375L14.3381 7.22625ZM4.395 6.27C4.57081 6.09425 4.80922 5.99551 5.05781 5.99551C5.3064 5.99551 5.54482 6.09425 5.72062 6.27L8.37188 8.91937C8.54265 9.09619 8.63714 9.333 8.63501 9.57881C8.63287 9.82462 8.53427 10.0598 8.36045 10.2336C8.18663 10.4074 7.9515 10.506 7.70569 10.5081C7.45988 10.5103 7.22306 10.4158 7.04625 10.245L4.395 7.59375C4.21925 7.41794 4.12051 7.17953 4.12051 6.93094C4.12051 6.68235 4.21925 6.44581 4.395 6.27ZM25.6087 6.27C25.7839 6.44573 25.8823 6.68374 25.8823 6.93188C25.8823 7.18001 25.7839 7.41802 25.6087 7.59375L22.9575 10.245C22.871 10.3345 22.7676 10.406 22.6532 10.4551C22.5388 10.5042 22.4158 10.5301 22.2913 10.5312C22.1668 10.5323 22.0434 10.5085 21.9282 10.4614C21.813 10.4143 21.7083 10.3446 21.6203 10.2566C21.5322 10.1686 21.4626 10.0639 21.4155 9.94871C21.3683 9.83349 21.3446 9.71004 21.3457 9.58556C21.3468 9.46108 21.3726 9.33806 21.4218 9.22368C21.4709 9.1093 21.5423 9.00586 21.6319 8.91937L24.2831 6.26812C24.4589 6.09237 24.6973 5.99364 24.9459 5.99364C25.1945 5.99364 25.4329 6.09425 25.6087 6.27ZM15.0019 11.25C15.9894 11.2497 16.9596 11.5094 17.815 12.003C18.6703 12.4965 19.3807 13.2066 19.8746 14.0617C20.3685 14.9169 20.6285 15.887 20.6286 16.8746C20.6287 17.8621 20.3688 18.8323 19.875 19.6875H10.1269C9.63302 18.8321 9.37311 17.8618 9.37327 16.8741C9.37343 15.8864 9.63365 14.9162 10.1278 14.0609C10.6219 13.2057 11.3325 12.4957 12.1881 12.0023C13.0437 11.5088 14.0142 11.2494 15.0019 11.25ZM21.9581 19.6875C22.4178 18.5491 22.5911 17.3152 22.4626 16.0942C22.3341 14.8732 21.9078 13.7025 21.2212 12.6847C20.5345 11.6669 19.6085 10.8333 18.5245 10.2569C17.4404 9.68058 16.2315 9.37918 15.0038 9.37918C13.776 9.37918 12.5671 9.68058 11.483 10.2569C10.399 10.8333 9.47297 11.6669 8.78634 12.6847C8.09971 13.7025 7.67343 14.8732 7.54494 16.0942C7.41644 17.3152 7.58966 18.5491 8.04937 19.6875H0.9375C0.68886 19.6875 0.450403 19.7863 0.274587 19.9621C0.0987721 20.1379 0 20.3764 0 20.625C0 20.8736 0.0987721 21.1121 0.274587 21.2879C0.450403 21.4637 0.68886 21.5625 0.9375 21.5625H29.0625C29.3111 21.5625 29.5496 21.4637 29.7254 21.2879C29.9012 21.1121 30 20.8736 30 20.625C30 20.3764 29.9012 20.1379 29.7254 19.9621C29.5496 19.7863 29.3111 19.6875 29.0625 19.6875H21.9563H21.9581ZM0.001875 16.875C0.001875 16.6264 0.100647 16.3879 0.276462 16.2121C0.452278 16.0363 0.690735 15.9375 0.939375 15.9375H4.68937C4.93802 15.9375 5.17647 16.0363 5.35229 16.2121C5.5281 16.3879 5.62687 16.6264 5.62687 16.875C5.62687 17.1236 5.5281 17.3621 5.35229 17.5379C5.17647 17.7137 4.93802 17.8125 4.68937 17.8125H0.939375C0.690735 17.8125 0.452278 17.7137 0.276462 17.5379C0.100647 17.3621 0.001875 17.1236 0.001875 16.875ZM24.3769 16.875C24.3769 16.6264 24.4756 16.3879 24.6515 16.2121C24.8273 16.0363 25.0657 15.9375 25.3144 15.9375H29.0644C29.313 15.9375 29.5515 16.0363 29.7273 16.2121C29.9031 16.3879 30.0019 16.6264 30.0019 16.875C30.0019 17.1236 29.9031 17.3621 29.7273 17.5379C29.5515 17.7137 29.313 17.8125 29.0644 17.8125H25.3144C25.0657 17.8125 24.8273 17.7137 24.6515 17.5379C24.4756 17.3621 24.3769 17.1236 24.3769 16.875Z" fill="url(#paint0_linear)"/>
<defs>
<linearGradient id="paint0_linear" x1="0" y1="0" x2="30" y2="22" gradientUnits="userSpaceOnUse">
<stop offset="0.206703" stop-color="#0B88FB"/>
<stop offset="1" stop-color="#FA00FF"/>
</linearGradient>
</defs>
</svg>
