<svg width="40" height="40" viewBox="0 0 40 40" fill="none" xmlns="http://www.w3.org/2000/svg">
<path d="M0 0V40H40V0H0ZM37.6471 18.8235H21.1765V2.35294H37.6471V18.8235ZM18.8235 2.35294V18.8235H2.35294V2.35294H18.8235ZM2.35294 21.1765H18.8235V37.6471H2.35294V21.1765ZM21.1765 37.6471V21.1765H37.6471V37.6471H21.1765Z" fill="#0279A5"/>
<path d="M29.4118 16.4706C31.3579 16.4706 32.9412 14.8873 32.9412 12.9412C32.9412 12.4456 32.7957 11.5532 31.6613 9.03019C30.9006 7.33859 30.2835 6.18188 29.4118 4.48298C28.5402 6.18172 27.923 7.33859 27.1623 9.03012C26.0278 11.5532 25.8824 12.4456 25.8824 12.9412C25.8824 14.8873 27.4656 16.4706 29.4118 16.4706ZM29.4118 9.76314C30.068 11.207 30.5805 12.5216 30.5882 12.9412C30.5882 13.5899 30.0605 14.1176 29.4118 14.1176C28.7633 14.1176 28.2357 13.5902 28.2353 12.9419C28.2432 12.5219 28.7558 11.2072 29.4118 9.76314V9.76314Z" fill="url(#paint0_linear)"/>
<path d="M13.966 27.2105C13.5258 25.7626 12.1781 24.7059 10.5882 24.7059C8.99828 24.7059 7.65067 25.7626 7.21051 27.2105C5.76259 27.6507 4.70588 28.9983 4.70588 30.5882C4.70588 32.5344 6.2891 34.1176 8.2353 34.1176H12.9412C14.8873 34.1176 16.4706 32.5344 16.4706 30.5882C16.4706 28.9983 15.4139 27.6507 13.966 27.2105ZM12.9412 31.7647H8.2353C7.58651 31.7647 7.05883 31.237 7.05883 30.5882C7.05883 29.9395 7.58651 29.4118 8.2353 29.4118H9.41177V28.2353C9.41177 27.5865 9.93945 27.0588 10.5882 27.0588C11.2369 27.0588 11.7647 27.5865 11.7647 28.2353V29.4118H12.9412C13.5899 29.4118 14.1177 29.9395 14.1177 30.5882C14.1177 31.237 13.5899 31.7647 12.9412 31.7647Z" fill="url(#paint1_linear)"/>
<path d="M31.7647 23.5294H30.5882V25.8824H31.7647C32.4134 25.8824 32.9412 26.41 32.9412 27.0588C32.9412 27.7076 32.4134 28.2353 31.7647 28.2353H23.5294V30.5882H31.7647C33.7108 30.5882 35.2941 29.0049 35.2941 27.0588C35.2941 25.1126 33.7108 23.5294 31.7647 23.5294Z" fill="url(#paint2_linear)"/>
<path d="M23.5294 32.9412H35.2941V35.2941H23.5294V32.9412Z" fill="url(#paint3_linear)"/>
<path d="M7.12933 11.2915L4.93882 12.6059L6.14949 14.6235L8.34157 13.3082C8.65702 13.5692 9.01859 13.7758 9.41176 13.9153V16.4706H11.7647V13.9153C12.2445 13.7451 12.6766 13.4739 13.036 13.1274L15.3234 14.2711L16.3757 12.1667L14.0898 11.0238C14.1348 10.6584 14.1277 10.2825 14.0471 9.88494L16.2376 8.57059L15.0269 6.55294L12.8348 7.86823C12.5194 7.60729 12.1578 7.40063 11.7647 7.26118V4.70588H9.41176V7.26118C8.93192 7.43137 8.49984 7.70259 8.14047 8.0491L5.85302 6.90533L4.80078 9.0098L7.08659 10.1527C7.04157 10.518 7.0487 10.894 7.12933 11.2915V11.2915ZM10.5882 9.41176C11.2369 9.41176 11.7647 9.93953 11.7647 10.5882C11.7647 11.2369 11.2369 11.7647 10.5882 11.7647C9.93945 11.7647 9.41176 11.2369 9.41176 10.5882C9.41176 9.93953 9.93945 9.41176 10.5882 9.41176V9.41176Z" fill="url(#paint4_linear)"/>
<defs>
<linearGradient id="paint0_linear" x1="26" y1="5" x2="33" y2="16" gradientUnits="userSpaceOnUse">
<stop stop-color="#8EBBE4"/>
<stop offset="0.777335" stop-color="#0085FF"/>
</linearGradient>
<linearGradient id="paint1_linear" x1="5" y1="25" x2="16" y2="34" gradientUnits="userSpaceOnUse">
<stop stop-color="#DBDBDB"/>
<stop offset="0.808586" stop-color="#585858"/>
</linearGradient>
<linearGradient id="paint2_linear" x1="29.4118" y1="23.5294" x2="29.4118" y2="30.5882" gradientUnits="userSpaceOnUse">
<stop stop-color="#B0E8F0"/>
<stop offset="1" stop-color="#699BA2"/>
</linearGradient>
<linearGradient id="paint3_linear" x1="29.4118" y1="32.9412" x2="29.4118" y2="35.2941" gradientUnits="userSpaceOnUse">
<stop stop-color="#B0E8F0"/>
<stop offset="1" stop-color="#699BA2"/>
</linearGradient>
<linearGradient id="paint4_linear" x1="5" y1="5" x2="16" y2="16" gradientUnits="userSpaceOnUse">
<stop stop-color="#FFB800"/>
<stop offset="0.0001" stop-color="#FCDF95"/>
<stop offset="1" stop-color="#FDB600"/>
</linearGradient>
</defs>
</svg>
