<svg id="rainy-1-drizzle" width="45" height="40" viewBox="0 0 50 40" fill="none" xmlns="http://www.w3.org/2000/svg">

    <defs>
        <linearGradient id="paint0_linear" x1="8.5" y1="4" x2="26" y2="22.5" gradientUnits="userSpaceOnUse">
            <stop stop-color="#3D26A7" />
            <stop offset="0.851142" stop-color="#1B0D57" />
        </linearGradient>
        <linearGradient id="paint1_linear" x1="15.5" y1="24" x2="13.5" y2="33.5" gradientUnits="userSpaceOnUse">
            <stop stop-color="#0094FF" />
            <stop offset="1" stop-color="#FA00FF" />
        </linearGradient>





        <style type="text/css">
            <![CDATA[
            /*
** RAIN
*/
            @keyframes am-weather-rain {
                0% {
                    stroke-dashoffset: 0;
                }

                100% {
                    stroke-dashoffset: -100;
                }
            }

            .am-weather-rain-1 {
                -webkit-animation-name: am-weather-rain;
                -moz-animation-name: am-weather-rain;
                -ms-animation-name: am-weather-rain;
                animation-name: am-weather-rain;
                -webkit-animation-duration: 8s;
                -moz-animation-duration: 8s;
                -ms-animation-duration: 8s;
                animation-duration: 8s;
                -webkit-animation-timing-function: linear;
                -moz-animation-timing-function: linear;
                -ms-animation-timing-function: linear;
                animation-timing-function: linear;
                -webkit-animation-iteration-count: infinite;
                -moz-animation-iteration-count: infinite;
                -ms-animation-iteration-count: infinite;
                animation-iteration-count: infinite;
            }
            ]]>
        </style>







    </defs>






    <g id="rainy-1">
        <g id="cloud-Group">
            <g id="cloud">
                <path id="Vector"
                    d="M31.7 14.4C31.7 9.8 28 6.2 23.5 6.2C22.5 6.2 21.6 6.4 20.7 6.7C20.4 3.3 17.6 0.5 14.1 0.5C10.4 0.5 7.40001 3.5 7.40001 7.2C7.40001 8 7.6 8.8 7.8 9.5C7.5 9.4 7.1 9.4 6.8 9.4C3.1 9.4 0.100006 12.4 0.100006 16.1C0.100006 19.7 3.00001 22.7 6.60001 22.8H23.8C28.2 22.3 31.7 18.8 31.7 14.4Z"
                    fill="url(#paint0_linear)" />
            </g>
        </g>
        <g id="rain-drop"  class="am-weather-rain-1">
            <path id="Vector_2" d="M14.9175 24.9429L13.5283 32.8214" stroke="url(#paint1_linear)" stroke-width="2"
                stroke-linecap="round" stroke-dasharray="4 7" />
        </g>
    </g>
</svg>