<svg width="30" height="22" viewBox="0 0 30 22" fill="none" xmlns="http://www.w3.org/2000/svg">
<path d="M0.9375 0C0.68886 0 0.450403 0.193155 0.274588 0.536971C0.0987722 0.880788 0 1.3471 0 1.83333C0 2.31956 0.0987722 2.78588 0.274588 3.1297C0.450403 3.47351 0.68886 3.66667 0.9375 3.66667H29.0625C29.3111 3.66667 29.5496 3.47351 29.7254 3.1297C29.9012 2.78588 30 2.31956 30 1.83333C30 1.3471 29.9012 0.880788 29.7254 0.536971C29.5496 0.193155 29.3111 0 29.0625 0H0.9375Z" fill="url(#paint0_linear)"/>
<path d="M0.9375 6.11111C0.68886 6.11111 0.450403 6.30426 0.274588 6.64808C0.0987722 6.9919 0 7.45821 0 7.94444C0 8.43067 0.0987722 8.89699 0.274588 9.24081C0.450403 9.58462 0.68886 9.77778 0.9375 9.77778H29.0625C29.3111 9.77778 29.5496 9.58462 29.7254 9.24081C29.9012 8.89699 30 8.43067 30 7.94444C30 7.45821 29.9012 6.9919 29.7254 6.64808C29.5496 6.30426 29.3111 6.11111 29.0625 6.11111H0.9375Z" fill="url(#paint1_linear)"/>
<path d="M0 14.0556C0 13.5693 0.0987722 13.103 0.274588 12.7592C0.450403 12.4154 0.68886 12.2222 0.9375 12.2222H29.0625C29.3111 12.2222 29.5496 12.4154 29.7254 12.7592C29.9012 13.103 30 13.5693 30 14.0556C30 14.5418 29.9012 15.0081 29.7254 15.3519C29.5496 15.6957 29.3111 15.8889 29.0625 15.8889H0.9375C0.68886 15.8889 0.450403 15.6957 0.274588 15.3519C0.0987722 15.0081 0 14.5418 0 14.0556Z" fill="url(#paint2_linear)"/>
<path d="M0.954545 18.3333C0.701384 18.3333 0.458592 18.5265 0.27958 18.8703C0.100568 19.2141 0 19.6804 0 20.1667C0 20.6529 0.100568 21.1192 0.27958 21.463C0.458592 21.8069 0.701384 22 0.954545 22H20.0455C20.2986 22 20.5414 21.8069 20.7204 21.463C20.8994 21.1192 21 20.6529 21 20.1667C21 19.6804 20.8994 19.2141 20.7204 18.8703C20.5414 18.5265 20.2986 18.3333 20.0455 18.3333H0.954545Z" fill="url(#paint3_linear)"/>
<defs>
<linearGradient id="paint0_linear" x1="0" y1="0" x2="30" y2="22" gradientUnits="userSpaceOnUse">
<stop offset="0.0809265" stop-color="#0078FB"/>
<stop offset="1" stop-color="#E500F5"/>
</linearGradient>
<linearGradient id="paint1_linear" x1="0" y1="0" x2="30" y2="22" gradientUnits="userSpaceOnUse">
<stop offset="0.0809265" stop-color="#0078FB"/>
<stop offset="1" stop-color="#E500F5"/>
</linearGradient>
<linearGradient id="paint2_linear" x1="0" y1="0" x2="30" y2="22" gradientUnits="userSpaceOnUse">
<stop offset="0.0809265" stop-color="#0078FB"/>
<stop offset="1" stop-color="#E500F5"/>
</linearGradient>
<linearGradient id="paint3_linear" x1="0" y1="0" x2="30" y2="22" gradientUnits="userSpaceOnUse">
<stop offset="0.0809265" stop-color="#0078FB"/>
<stop offset="1" stop-color="#E500F5"/>
</linearGradient>
</defs>
</svg>
