<svg width="28" height="29" viewBox="0 0 28 29" fill="none" xmlns="http://www.w3.org/2000/svg">
    <path
        d="M23.9999 29H19.9999C19.4699 28.9984 18.9622 28.7872 18.5874 28.4125C18.2127 28.0377 18.0015 27.5299 17.9999 27V20C17.4699 19.9984 16.9622 19.7872 16.5874 19.4125C16.2127 19.0377 16.0015 18.5299 15.9999 18V12C15.9926 11.604 16.0652 11.2106 16.2133 10.8433C16.3615 10.4761 16.5822 10.1424 16.8623 9.86236C17.1423 9.58231 17.4759 9.36161 17.8432 9.21344C18.2105 9.06527 18.6039 8.99267 18.9999 9H24.9999C25.3959 8.99267 25.7893 9.06527 26.1566 9.21344C26.5238 9.36161 26.8575 9.58231 27.1375 9.86236C27.4176 10.1424 27.6383 10.4761 27.7865 10.8433C27.9346 11.2106 28.0072 11.604 27.9999 12V18C27.9983 18.5299 27.7871 19.0377 27.4124 19.4125C27.0376 19.7872 26.5298 19.9984 25.9999 20V27C25.9983 27.5299 25.7871 28.0377 25.4124 28.4125C25.0376 28.7872 24.5298 28.9984 23.9999 29ZM18.9999 11C18.8665 10.992 18.7329 11.0124 18.6079 11.0598C18.483 11.1072 18.3695 11.1806 18.275 11.2751C18.1805 11.3696 18.1071 11.4831 18.0597 11.608C18.0122 11.733 17.9919 11.8666 17.9999 12V18H19.9999V27H23.9999V18H25.9999V12C26.0079 11.8666 25.9875 11.733 25.9401 11.608C25.8927 11.4831 25.8193 11.3696 25.7248 11.2751C25.6303 11.1806 25.5168 11.1072 25.3919 11.0598C25.2669 11.0124 25.1333 10.992 24.9999 11H18.9999Z"
        fill="url(#paint0_linear)" />
    <path
        d="M21.9999 8C21.2088 8 20.4354 7.76541 19.7776 7.32588C19.1198 6.88635 18.6071 6.26164 18.3044 5.53074C18.0016 4.79983 17.9224 3.99556 18.0768 3.21964C18.2311 2.44372 18.6121 1.73098 19.1715 1.17157C19.7309 0.612165 20.4436 0.231202 21.2195 0.0768607C21.9955 -0.0774802 22.7997 0.00173312 23.5306 0.304484C24.2615 0.607234 24.8862 1.11992 25.3258 1.77772C25.7653 2.43552 25.9999 3.20888 25.9999 4C25.9967 5.05989 25.5743 6.07547 24.8248 6.82493C24.0754 7.57439 23.0598 7.99684 21.9999 8ZM21.9999 2C21.6043 2 21.2177 2.1173 20.8888 2.33706C20.5599 2.55683 20.3035 2.86918 20.1521 3.23463C20.0008 3.60009 19.9612 4.00222 20.0383 4.39018C20.1155 4.77814 20.306 5.13451 20.5857 5.41422C20.8654 5.69392 21.2218 5.8844 21.6097 5.96157C21.9977 6.03874 22.3998 5.99914 22.7653 5.84776C23.1307 5.69639 23.4431 5.44004 23.6628 5.11114C23.8826 4.78224 23.9999 4.39556 23.9999 4C23.9983 3.47006 23.7871 2.96227 23.4124 2.58754C23.0376 2.21281 22.5298 2.00158 21.9999 2Z"
        fill="url(#paint1_linear)" />
    <path
        d="M7.99989 19.184V11H5.99989V19.184C5.33268 19.4199 4.77034 19.8841 4.41226 20.4945C4.05418 21.1049 3.92343 21.8222 4.0431 22.5197C4.16277 23.2172 4.52516 23.85 5.06623 24.3061C5.6073 24.7622 6.29221 25.0124 6.99989 25.0124C7.70758 25.0124 8.39248 24.7622 8.93355 24.3061C9.47462 23.85 9.83702 23.2172 9.95669 22.5197C10.0764 21.8222 9.9456 21.1049 9.58752 20.4945C9.22945 19.8841 8.66711 19.4199 7.99989 19.184Z"
        fill="url(#paint2_linear)" />
    <path
        d="M6.99989 29C5.62187 29.0016 4.2741 28.5959 3.12583 27.8341C1.97756 27.0722 1.07999 25.9881 0.545807 24.7178C0.0116271 23.4475 -0.135339 22.0477 0.123362 20.6942C0.382063 19.3407 1.0349 18.0937 1.99989 17.11V6C1.99989 4.67392 2.52668 3.40215 3.46436 2.46447C4.40204 1.52679 5.67381 1 6.99989 1C8.32598 1 9.59775 1.52679 10.5354 2.46447C11.4731 3.40215 11.9999 4.67392 11.9999 6V17.11C12.9649 18.0937 13.6177 19.3407 13.8764 20.6942C14.1351 22.0477 13.9882 23.4475 13.454 24.7178C12.9198 25.9881 12.0222 27.0722 10.874 27.8341C9.72569 28.5959 8.37792 29.0016 6.99989 29ZM6.99989 3C6.20449 3.0008 5.44189 3.31712 4.87945 3.87956C4.31701 4.442 4.00069 5.2046 3.99989 6V17.983L3.66789 18.282C2.91277 18.9569 2.38041 19.8452 2.14127 20.8294C1.90214 21.8135 1.9675 22.8471 2.32871 23.7932C2.68992 24.7394 3.32995 25.5536 4.16408 26.128C4.99821 26.7024 5.98712 27.01 6.99989 27.01C8.01267 27.01 9.00157 26.7024 9.8357 26.128C10.6698 25.5536 11.3099 24.7394 11.6711 23.7932C12.0323 22.8471 12.0976 21.8135 11.8585 20.8294C11.6194 19.8452 11.087 18.9569 10.3319 18.282L9.99989 17.983V6C9.9991 5.2046 9.68277 4.442 9.12034 3.87956C8.5579 3.31712 7.7953 3.0008 6.99989 3Z"
        fill="url(#paint3_linear)" />
    <defs>
        <linearGradient id="paint0_linear" x1="4.92137e-07" y1="-9.4351e-08" x2="28" y2="29"
            gradientUnits="userSpaceOnUse">
            <stop offset="0.0779516" stop-color="#0078FB" />
            <stop offset="1" stop-color="#E500F5" />
        </linearGradient>
        <linearGradient id="paint1_linear" x1="4.92137e-07" y1="-9.4351e-08" x2="28" y2="29"
            gradientUnits="userSpaceOnUse">
            <stop offset="0.0779516" stop-color="#0078FB" />
            <stop offset="1" stop-color="#E500F5" />
        </linearGradient>
        <linearGradient id="paint2_linear" x1="4.92137e-07" y1="-9.4351e-08" x2="28" y2="29"
            gradientUnits="userSpaceOnUse">
            <stop offset="0.0779516" stop-color="#0078FB" />
            <stop offset="1" stop-color="#E500F5" />
        </linearGradient>
        <linearGradient id="paint3_linear" x1="4.92137e-07" y1="-9.4351e-08" x2="28" y2="29"
            gradientUnits="userSpaceOnUse">
            <stop offset="0.0779516" stop-color="#0078FB" />
            <stop offset="1" stop-color="#E500F5" />
        </linearGradient>
    </defs>
</svg>