<svg width="18" height="28" viewBox="0 0 18 28" fill="none" xmlns="http://www.w3.org/2000/svg">
<path d="M16.2014 11.8985L9.68288 0.472496C9.58831 0.326379 9.46337 0.207262 9.31849 0.125072C9.17362 0.042882 9.01299 0 8.85 0C8.68701 0 8.52639 0.042882 8.38151 0.125072C8.23663 0.207262 8.11169 0.326379 8.01712 0.472496L1.4691 11.9527C0.559404 13.5679 0.052673 15.4186 0 17.3182C0 19.9019 0.932408 22.3798 2.5921 24.2067C4.2518 26.0336 6.50283 27.06 8.85 27.06C11.1972 27.06 13.4482 26.0336 15.1079 24.2067C16.7676 22.3798 17.7 19.9019 17.7 17.3182C17.6435 15.3978 17.1265 13.528 16.2014 11.8985V11.8985ZM8.85 24.8952C7.02515 24.8926 5.2757 24.0935 3.98534 22.6731C2.69497 21.2527 1.96901 19.327 1.96667 17.3182C2.01893 15.8045 2.43199 14.3326 3.16437 13.0502L4.08378 11.4374L13.9899 22.3417C13.3465 23.1441 12.5555 23.7868 11.6694 24.2272C10.7833 24.6676 9.82225 24.8956 8.85 24.8962V24.8952Z" fill="url(#paint0_linear)"/>
<defs>
<linearGradient id="paint0_linear" x1="5.68301" y1="3.5" x2="12.0021" y2="27.1063" gradientUnits="userSpaceOnUse">
<stop stop-color="#0B88FB"/>
<stop offset="1" stop-color="#FA00FF"/>
</linearGradient>
</defs>
</svg>
