<svg width="25" height="25" viewBox="0 0 25 25" fill="none" xmlns="http://www.w3.org/2000/svg">
<g id="01n" clip-path="url(#clip0)">
<g id="main-group">
<g id="group-1">
<g id="star2">
<path id="Vector" d="M1.48562 6.82603L2.42746 7.57197L3.59993 7.68L2.8219 8.61643L2.60826 9.79874L1.74895 9.02163L0.546148 8.83325L1.35451 7.97716L1.48562 6.82603Z" fill="url(#paint0_linear)"/>
</g>
<g id="star-1">
<path id="Vector_2" d="M21.0267 8.62658L21.9686 9.37252L23.141 9.48053L22.363 10.417L22.1493 11.5993L21.2901 10.8222L20.0873 10.6338L20.8956 9.77771L21.0267 8.62658Z" fill="url(#paint1_linear)"/>
</g>
<g id="moon">
<path id="Vector_3" d="M14.2795 12.7353C13.1569 9.76257 13.8366 6.56821 15.7665 4.18695C14.2554 3.9314 12.7309 4.1399 11.2453 4.70093C6.70593 6.41523 4.35723 11.4333 6.02601 15.8522C7.6948 20.2711 12.7742 22.4839 17.3136 20.7696C18.7992 20.2086 20.0506 19.277 21.0459 18.1667C18.0541 17.736 15.4021 15.708 14.2795 12.7353Z" fill="url(#paint2_linear)"/>
</g>
</g>
</g>
</g>
<defs>
<linearGradient id="paint0_linear" x1="1.12876" y1="7.87881" x2="2.94297" y2="9.06502" gradientUnits="userSpaceOnUse">
<stop stop-color="#0094FF"/>
<stop offset="1" stop-color="#FA00FF"/>
</linearGradient>
<linearGradient id="paint1_linear" x1="20.6699" y1="9.67936" x2="22.4841" y2="10.8656" gradientUnits="userSpaceOnUse">
<stop stop-color="#0094FF"/>
<stop offset="1" stop-color="#FA00FF"/>
</linearGradient>
<linearGradient id="paint2_linear" x1="6.01405" y1="8.32895" x2="19.8719" y2="19.8427" gradientUnits="userSpaceOnUse">
<stop stop-color="#0094FF"/>
<stop offset="1" stop-color="#FA00FF"/>
</linearGradient>
<clipPath id="clip0">
<rect width="25" height="25" fill="white"/>
</clipPath>
</defs>
</svg>
