<svg width="20" height="20" viewBox="0 0 20 20" fill="none" xmlns="http://www.w3.org/2000/svg">
<g id="03n">
<g id="cloud">
<g id="Group">
<g id="cloud_2">
<path id="Vector" d="M17.8 11.8565C17.8 9.58744 15.95 7.81166 13.7 7.81166C13.2 7.81166 12.75 7.91031 12.3 8.0583C12.15 6.38117 10.75 5 9 5C7.15 5 5.65 6.47982 5.65 8.30493C5.65 8.69955 5.75 9.09417 5.85 9.43946C5.7 9.39013 5.5 9.39013 5.35 9.39013C3.5 9.39013 2 10.87 2 12.6951C2 14.4709 3.45 15.9507 5.25 16H13.85C16.05 15.7534 17.8 14.0269 17.8 11.8565Z" fill="url(#paint0_linear)"/>
</g>
</g>
</g>
</g>
<defs>
<linearGradient id="paint0_linear" x1="6.45" y1="6.72646" x2="13.5839" y2="15.4537" gradientUnits="userSpaceOnUse">
<stop stop-color="#3D26A7"/>
<stop offset="0.641373" stop-color="#1B0D57"/>
</linearGradient>
</defs>
</svg>
