<svg width="20" height="20" viewBox="0 0 20 20" fill="none" xmlns="http://www.w3.org/2000/svg">
<g id="50d">
<g id="Group">
<path id="Vector" d="M8.74067 4.95024C8.74067 4.74243 8.82348 4.54312 8.97089 4.39617C9.11829 4.24923 9.31821 4.16667 9.52667 4.16667H16.6007C16.8091 4.16667 17.0091 4.24923 17.1565 4.39617C17.3039 4.54312 17.3867 4.74243 17.3867 4.95024C17.3867 5.15806 17.3039 5.35736 17.1565 5.50431C17.0091 5.65126 16.8091 5.73381 16.6007 5.73381H9.52667C9.31821 5.73381 9.11829 5.65126 8.97089 5.50431C8.82348 5.35736 8.74067 5.15806 8.74067 4.95024ZM1.66667 8.08453C1.66667 7.87671 1.74948 7.67741 1.89689 7.53046C2.04429 7.38351 2.24421 7.30096 2.45267 7.30096H11.0987C11.3071 7.30096 11.5071 7.38351 11.6545 7.53046C11.8019 7.67741 11.8847 7.87671 11.8847 8.08453C11.8847 8.29234 11.8019 8.49165 11.6545 8.6386C11.5071 8.78555 11.3071 8.8681 11.0987 8.8681H2.45267C2.24421 8.8681 2.04429 8.78555 1.89689 8.6386C1.74948 8.49165 1.66667 8.29234 1.66667 8.08453V8.08453ZM4.02467 10.4352C3.81621 10.4352 3.61629 10.5178 3.46889 10.6647C3.32148 10.8117 3.23867 11.011 3.23867 11.2188C3.23867 11.4266 3.32148 11.6259 3.46889 11.7729C3.61629 11.9198 3.81621 12.0024 4.02467 12.0024H11.0987C11.3071 12.0024 11.5071 11.9198 11.6545 11.7729C11.8019 11.6259 11.8847 11.4266 11.8847 11.2188C11.8847 11.011 11.8019 10.8117 11.6545 10.6647C11.5071 10.5178 11.3071 10.4352 11.0987 10.4352H4.02467ZM13.4567 10.4352C13.2482 10.4352 13.0483 10.5178 12.9009 10.6647C12.7535 10.8117 12.6707 11.011 12.6707 11.2188C12.6707 11.4266 12.7535 11.6259 12.9009 11.7729C13.0483 11.9198 13.2482 12.0024 13.4567 12.0024H16.6007C16.8091 12.0024 17.0091 11.9198 17.1565 11.7729C17.3039 11.6259 17.3867 11.4266 17.3867 11.2188C17.3867 11.011 17.3039 10.8117 17.1565 10.6647C17.0091 10.5178 16.8091 10.4352 16.6007 10.4352H13.4567ZM13.4567 7.30096C13.2482 7.30096 13.0483 7.38351 12.9009 7.53046C12.7535 7.67741 12.6707 7.87671 12.6707 8.08453C12.6707 8.29234 12.7535 8.49165 12.9009 8.6386C13.0483 8.78555 13.2482 8.8681 13.4567 8.8681H15.0287C15.2371 8.8681 15.4371 8.78555 15.5845 8.6386C15.7319 8.49165 15.8147 8.29234 15.8147 8.08453C15.8147 7.87671 15.7319 7.67741 15.5845 7.53046C15.4371 7.38351 15.2371 7.30096 15.0287 7.30096H13.4567ZM5.59667 14.3531C5.59667 14.1453 5.67948 13.946 5.82689 13.799C5.97429 13.6521 6.17421 13.5695 6.38267 13.5695H15.0287C15.2371 13.5695 15.4371 13.6521 15.5845 13.799C15.7319 13.946 15.8147 14.1453 15.8147 14.3531C15.8147 14.5609 15.7319 14.7602 15.5845 14.9072C15.4371 15.0541 15.2371 15.1367 15.0287 15.1367H6.38267C6.17421 15.1367 5.97429 15.0541 5.82689 14.9072C5.67948 14.7602 5.59667 14.5609 5.59667 14.3531ZM2.45267 13.5695C2.24421 13.5695 2.04429 13.6521 1.89689 13.799C1.74948 13.946 1.66667 14.1453 1.66667 14.3531C1.66667 14.5609 1.74948 14.7602 1.89689 14.9072C2.04429 15.0541 2.24421 15.1367 2.45267 15.1367H4.02467C4.23313 15.1367 4.43305 15.0541 4.58046 14.9072C4.72786 14.7602 4.81067 14.5609 4.81067 14.3531C4.81067 14.1453 4.72786 13.946 4.58046 13.799C4.43305 13.6521 4.23313 13.5695 4.02467 13.5695H2.45267ZM4.02467 4.16667C3.81621 4.16667 3.61629 4.24923 3.46889 4.39617C3.32148 4.54312 3.23867 4.74243 3.23867 4.95024C3.23867 5.15806 3.32148 5.35736 3.46889 5.50431C3.61629 5.65126 3.81621 5.73381 4.02467 5.73381H7.16867C7.37713 5.73381 7.57705 5.65126 7.72446 5.50431C7.87186 5.35736 7.95467 5.15806 7.95467 4.95024C7.95467 4.74243 7.87186 4.54312 7.72446 4.39617C7.57705 4.24923 7.37713 4.16667 7.16867 4.16667H4.02467Z" fill="url(#paint0_linear)"/>
</g>
</g>
<defs>
<linearGradient id="paint0_linear" x1="1.98107" y1="4.00995" x2="17.0386" y2="15.3381" gradientUnits="userSpaceOnUse">
<stop stop-color="#0094FF"/>
<stop offset="1" stop-color="#EC09FF"/>
</linearGradient>
</defs>
</svg>
