<svg width="30" height="30" viewBox="0 0 30 30" fill="none" xmlns="http://www.w3.org/2000/svg">
<path d="M11.0183 18.2247C11.2412 18.6883 11.5627 19.0976 11.9604 19.424C12.3581 19.7503 12.8224 19.9857 13.3206 20.1138C13.8188 20.2418 14.3391 20.2595 14.8448 20.1654C15.3506 20.0713 15.8296 19.8677 16.2485 19.569C16.6673 19.2703 17.0158 18.8837 17.2695 18.4362C17.5233 17.9887 17.6761 17.4911 17.7173 16.9783C17.7585 16.4655 17.6871 15.9499 17.5082 15.4676C17.3292 14.9853 17.047 14.548 16.6812 14.1862L18.5852 8.77379C19.1117 6.85469 16.1118 5.72969 15.2563 7.60272L13.2521 13.3C12.7557 13.4386 12.2956 13.6842 11.9043 14.0196C11.5129 14.355 11.1998 14.7721 10.9869 15.2415C10.774 15.7109 10.6665 16.2212 10.6719 16.7365C10.6773 17.2519 10.7956 17.7599 11.0183 18.2247Z" fill="url(#paint0_linear)"/>
<path fill-rule="evenodd" clip-rule="evenodd" d="M30 15C30 18.9782 28.4196 22.7936 25.6066 25.6066C22.7936 28.4196 18.9782 30 15 30C11.0218 30 7.20644 28.4196 4.3934 25.6066C1.58035 22.7936 0 18.9782 0 15C0 11.0218 1.58035 7.20644 4.3934 4.3934C7.20644 1.58035 11.0218 0 15 0C18.9782 0 22.7936 1.58035 25.6066 4.3934C28.4196 7.20644 30 11.0218 30 15ZM26.4706 15C26.4706 18.0422 25.2621 20.9598 23.1109 23.1109C20.9598 25.2621 18.0422 26.4706 15 26.4706C11.9578 26.4706 9.04022 25.2621 6.88907 23.1109C4.73792 20.9598 3.52941 18.0422 3.52941 15C3.52941 11.9578 4.73792 9.04022 6.88907 6.88907C9.04022 4.73792 11.9578 3.52941 15 3.52941C18.0422 3.52941 20.9598 4.73792 23.1109 6.88907C25.2621 9.04022 26.4706 11.9578 26.4706 15Z" fill="url(#paint1_linear)"/>
<defs>
<linearGradient id="paint0_linear" x1="0" y1="0" x2="29.9335" y2="29.9335" gradientUnits="userSpaceOnUse">
<stop stop-color="#0B88FB"/>
<stop offset="1" stop-color="#FA00FF"/>
</linearGradient>
<linearGradient id="paint1_linear" x1="0" y1="0" x2="29.9335" y2="29.9335" gradientUnits="userSpaceOnUse">
<stop stop-color="#0B88FB"/>
<stop offset="1" stop-color="#FA00FF"/>
</linearGradient>
</defs>
</svg>
