<svg width="30" height="22" viewBox="0 0 30 22" fill="none" xmlns="http://www.w3.org/2000/svg">
<path d="M29.8188 10.1635C26.9943 4.10151 21.4026 0 15 0C8.59738 0 3.00414 4.10438 0.181222 10.1641C0.0620768 10.4234 0 10.7098 0 11.0003C0 11.2908 0.0620768 11.5772 0.181222 11.8365C3.00571 17.8985 8.59738 22 15 22C21.4026 22 26.9959 17.8956 29.8188 11.8359C29.9379 11.5766 30 11.2902 30 10.9997C30 10.7092 29.9379 10.4228 29.8188 10.1635V10.1635ZM15 19.25C13.5166 19.25 12.0666 18.7661 10.8332 17.8596C9.59984 16.9531 8.63855 15.6646 8.07089 14.1571C7.50323 12.6496 7.35471 10.9908 7.6441 9.39051C7.93349 7.79016 8.64779 6.32015 9.69669 5.16637C10.7456 4.01259 12.082 3.22685 13.5368 2.90852C14.9917 2.59019 16.4997 2.75357 17.8701 3.37799C19.2406 4.00242 20.4119 5.05984 21.236 6.41655C22.0601 7.77325 22.5 9.3683 22.5 11C22.5005 12.0836 22.3068 13.1566 21.9301 14.1578C21.5533 15.1589 21.0009 16.0686 20.3044 16.8348C19.6078 17.601 18.7809 18.2087 17.8707 18.6231C16.9605 19.0375 15.9851 19.2505 15 19.25V19.25ZM15 5.5C14.5537 5.50686 14.1103 5.5799 13.6818 5.71714C14.035 6.24518 14.2045 6.89499 14.1596 7.54872C14.1146 8.20245 13.8582 8.81681 13.4367 9.28039C13.0153 9.74397 12.4568 10.0261 11.8625 10.0755C11.2682 10.125 10.6774 9.93851 10.1974 9.54995C9.92404 10.6577 9.97338 11.8319 10.3385 12.9072C10.7036 13.9826 11.366 14.9049 12.2326 15.5444C13.0992 16.1838 14.1263 16.5083 15.1693 16.472C16.2123 16.4358 17.2187 16.0407 18.0468 15.3423C18.875 14.6439 19.4832 13.6775 19.7859 12.579C20.0885 11.4804 20.0704 10.3052 19.734 9.21856C19.3976 8.13196 18.76 7.18875 17.9108 6.52169C17.0615 5.85463 16.0435 5.4973 15 5.5V5.5Z" fill="url(#paint0_linear)"/>
<defs>
<linearGradient id="paint0_linear" x1="0" y1="0" x2="30" y2="22" gradientUnits="userSpaceOnUse">
<stop stop-color="#0B88FB"/>
<stop offset="1" stop-color="#FA00FF"/>
</linearGradient>
</defs>
</svg>
