<svg width="28" height="28" viewBox="0 0 28 28" fill="none" xmlns="http://www.w3.org/2000/svg">
<path d="M21.1406 1.93286C20.0193 1.93286 18.9438 2.44196 18.1509 3.34816C17.358 4.25436 16.9125 5.48344 16.9125 6.765C16.9125 7.02131 16.8234 7.26713 16.6648 7.44837C16.5062 7.62961 16.2911 7.73143 16.0669 7.73143C15.8426 7.73143 15.6275 7.62961 15.4689 7.44837C15.3103 7.26713 15.2212 7.02131 15.2212 6.765C15.2212 5.42701 15.5684 4.11907 16.2188 3.00657C16.8693 1.89407 17.7938 1.02698 18.8754 0.514958C19.957 0.00293118 21.1472 -0.131038 22.2954 0.129991C23.4437 0.39102 24.4984 1.03532 25.3263 1.98143C26.1541 2.92753 26.7179 4.13293 26.9463 5.44522C27.1747 6.7575 27.0574 8.11771 26.6094 9.35385C26.1614 10.59 25.4027 11.6465 24.4293 12.3899C23.4558 13.1332 22.3114 13.53 21.1406 13.53H0.845625C0.621351 13.53 0.406263 13.4282 0.247678 13.2469C0.0890924 13.0657 0 12.8199 0 12.5636C0 12.3073 0.0890924 12.0614 0.247678 11.8802C0.406263 11.699 0.621351 11.5971 0.845625 11.5971H21.1406C22.262 11.5971 23.3374 11.088 24.1304 10.1818C24.9233 9.27564 25.3687 8.04657 25.3687 6.765C25.3687 5.48344 24.9233 4.25436 24.1304 3.34816C23.3374 2.44196 22.262 1.93286 21.1406 1.93286ZM9.30187 3.86572C8.85333 3.86572 8.42315 4.06936 8.10598 4.43184C7.78881 4.79432 7.61062 5.28595 7.61062 5.79857C7.61062 6.05489 7.52153 6.3007 7.36295 6.48194C7.20436 6.66318 6.98927 6.765 6.765 6.765C6.54073 6.765 6.32564 6.66318 6.16705 6.48194C6.00847 6.3007 5.91937 6.05489 5.91937 5.79857C5.91937 5.03401 6.11775 4.28661 6.48943 3.6509C6.8611 3.01518 7.38938 2.51971 8.00745 2.22712C8.62552 1.93453 9.30563 1.85798 9.96177 2.00714C10.6179 2.1563 11.2206 2.52447 11.6937 3.0651C12.1667 3.60573 12.4889 4.29453 12.6194 5.04441C12.7499 5.79428 12.6829 6.57155 12.4269 7.27792C12.1709 7.98428 11.7373 8.58803 11.1811 9.0128C10.6248 9.43757 9.97087 9.66429 9.30187 9.66429H0.845625C0.621351 9.66429 0.406263 9.56247 0.247678 9.38123C0.0890924 9.19999 0 8.95417 0 8.69786C0 8.44155 0.0890924 8.19573 0.247678 8.01449C0.406263 7.83325 0.621351 7.73143 0.845625 7.73143H9.30187C9.75042 7.73143 10.1806 7.52779 10.4978 7.16531C10.8149 6.80283 10.9931 6.3112 10.9931 5.79857C10.9931 5.28595 10.8149 4.79432 10.4978 4.43184C10.1806 4.06936 9.75042 3.86572 9.30187 3.86572ZM0 16.4293C0 16.173 0.0890924 15.9272 0.247678 15.7459C0.406263 15.5647 0.621351 15.4629 0.845625 15.4629H17.8292C18.8326 15.4629 19.8136 15.8029 20.648 16.4401C21.4824 17.0772 22.1327 17.9829 22.5167 19.0424C22.9007 20.102 23.0012 21.2679 22.8054 22.3927C22.6096 23.5175 22.1264 24.5507 21.4168 25.3616C20.7073 26.1726 19.8032 26.7248 18.819 26.9486C17.8348 27.1723 16.8146 27.0575 15.8875 26.6186C14.9604 26.1797 14.168 25.4365 13.6105 24.4829C13.053 23.5294 12.7554 22.4083 12.7554 21.2614C12.7554 21.0051 12.8445 20.7593 13.0031 20.5781C13.1617 20.3968 13.3768 20.295 13.601 20.295C13.8253 20.295 14.0404 20.3968 14.199 20.5781C14.3576 20.7593 14.4467 21.0051 14.4467 21.2614C14.4467 22.026 14.645 22.7734 15.0167 23.4091C15.3884 24.0448 15.9167 24.5403 16.5347 24.8329C17.1528 25.1255 17.8329 25.202 18.489 25.0529C19.1452 24.9037 19.7479 24.5355 20.2209 23.9949C20.694 23.4543 21.0161 22.7655 21.1467 22.0156C21.2772 21.2657 21.2102 20.4885 20.9542 19.7821C20.6982 19.0757 20.2646 18.472 19.7084 18.0472C19.1521 17.6224 18.4981 17.3957 17.8292 17.3957H0.845625C0.621351 17.3957 0.406263 17.2939 0.247678 17.1127C0.0890924 16.9314 0 16.6856 0 16.4293Z" fill="url(#paint0_linear)"/>
<defs>
<linearGradient id="paint0_linear" x1="0" y1="0" x2="25" y2="27" gradientUnits="userSpaceOnUse">
<stop stop-color="#0B88FB"/>
<stop offset="1" stop-color="#FA00FF"/>
</linearGradient>
</defs>
</svg>
